<svg width="85" height="43" viewBox="0 0 85 43" fill="none" xmlns="http://www.w3.org/2000/svg">
<g filter="url(#filter0_d)">
<path d="M20 35L4.75861 27.3793V8.6207L20 16.2414V35Z" fill="#26B99A"/>
<path d="M20 35L35.2414 27.3793V8.6207L20 16.2414V35Z" fill="#556080"/>
<path d="M4.75861 8.62069L19.4138 1L35.2414 8.62069L20 16.2414L4.75861 8.62069Z" fill="#434C6D"/>
</g>
<path d="M41.8506 6.77832C41.8962 7.1071 41.9857 7.35286 42.1191 7.51562C42.3633 7.81185 42.7816 7.95996 43.374 7.95996C43.7288 7.95996 44.0169 7.9209 44.2383 7.84277C44.6582 7.69303 44.8682 7.41471 44.8682 7.00781C44.8682 6.77018 44.764 6.58626 44.5557 6.45605C44.3473 6.3291 44.0202 6.2168 43.5742 6.11914L42.8125 5.94824C42.0638 5.77897 41.5462 5.59505 41.2598 5.39648C40.7747 5.06445 40.5322 4.54525 40.5322 3.83887C40.5322 3.19434 40.7666 2.65885 41.2354 2.23242C41.7041 1.80599 42.3926 1.59277 43.3008 1.59277C44.0592 1.59277 44.7054 1.7946 45.2393 2.19824C45.7764 2.59863 46.0579 3.18132 46.084 3.94629H44.6387C44.6126 3.51335 44.4238 3.20573 44.0723 3.02344C43.8379 2.90299 43.5465 2.84277 43.1982 2.84277C42.8109 2.84277 42.5016 2.9209 42.2705 3.07715C42.0394 3.2334 41.9238 3.4515 41.9238 3.73145C41.9238 3.98861 42.0378 4.18066 42.2656 4.30762C42.4121 4.39225 42.7246 4.49154 43.2031 4.60547L44.4434 4.90332C44.987 5.03353 45.3971 5.20768 45.6738 5.42578C46.1035 5.76432 46.3184 6.25423 46.3184 6.89551C46.3184 7.55306 46.0661 8.09993 45.5615 8.53613C45.0602 8.96908 44.3506 9.18555 43.4326 9.18555C42.4951 9.18555 41.7578 8.97233 41.2207 8.5459C40.6836 8.11621 40.415 7.52702 40.415 6.77832H41.8506ZM47.9561 1.80273H49.4355V4.7666L52.2139 1.80273H54.1572L51.208 4.7666L54.3086 9H52.375L50.1533 5.85547L49.4355 6.59277V9H47.9561V1.80273ZM59.7646 1.80273H61.4688L59.0615 6.29492V9H57.5576V6.29492L55.0674 1.80273H56.8398L58.334 4.9375L59.7646 1.80273ZM46.084 15.0771H42.2754V16.6055H45.7715V17.8555H42.2754V19.7061H46.2598V21H40.8057V13.8027H46.084V15.0771ZM47.9072 13.8027H49.4844L52.3506 18.8271V13.8027H53.752V21H52.248L49.3086 15.8877V21H47.9072V13.8027ZM60.9805 15.0771H57.1719V16.6055H60.668V17.8555H57.1719V19.7061H61.1562V21H55.7021V13.8027H60.9805V15.0771ZM64.332 15.0527V16.9863H66.0361C66.3747 16.9863 66.6286 16.9473 66.7979 16.8691C67.0973 16.7324 67.2471 16.4622 67.2471 16.0586C67.2471 15.6224 67.1022 15.3294 66.8125 15.1797C66.6497 15.0951 66.4056 15.0527 66.0801 15.0527H64.332ZM66.3926 13.8027C66.8971 13.8125 67.2845 13.8743 67.5547 13.9883C67.8281 14.1022 68.0592 14.2699 68.248 14.4912C68.4043 14.6735 68.528 14.8753 68.6191 15.0967C68.7103 15.318 68.7559 15.5703 68.7559 15.8535C68.7559 16.1953 68.6696 16.5322 68.4971 16.8643C68.3245 17.193 68.0397 17.4258 67.6426 17.5625C67.9746 17.696 68.209 17.8864 68.3457 18.1338C68.4857 18.3779 68.5557 18.7523 68.5557 19.2568V19.7402C68.5557 20.069 68.5687 20.292 68.5947 20.4092C68.6338 20.5947 68.7249 20.7314 68.8682 20.8193V21H67.2129C67.1673 20.8405 67.1348 20.7119 67.1152 20.6143C67.0762 20.4124 67.055 20.2057 67.0518 19.9941L67.042 19.3252C67.0355 18.8662 66.9508 18.5602 66.7881 18.4072C66.6286 18.2542 66.3275 18.1777 65.8848 18.1777H64.332V21H62.8623V13.8027H66.3926ZM75.3936 16.0488C75.2796 15.5573 75.0013 15.2139 74.5586 15.0186C74.3112 14.9111 74.0361 14.8574 73.7334 14.8574C73.154 14.8574 72.6771 15.0771 72.3027 15.5166C71.9316 15.9528 71.7461 16.6104 71.7461 17.4893C71.7461 18.3747 71.9479 19.0013 72.3516 19.3691C72.7552 19.737 73.2142 19.9209 73.7285 19.9209C74.2331 19.9209 74.6465 19.776 74.9688 19.4863C75.291 19.1934 75.4896 18.8109 75.5645 18.3389H73.8994V17.1377H76.8975V21H75.9014L75.75 20.1016C75.4603 20.4434 75.1999 20.6842 74.9688 20.8242C74.5716 21.0684 74.0833 21.1904 73.5039 21.1904C72.5501 21.1904 71.7689 20.86 71.1602 20.1992C70.5254 19.5352 70.208 18.627 70.208 17.4746C70.208 16.3092 70.5286 15.375 71.1699 14.6719C71.8112 13.9688 72.6592 13.6172 73.7139 13.6172C74.6286 13.6172 75.3626 13.8499 75.916 14.3154C76.4727 14.7777 76.7917 15.3555 76.873 16.0488H75.3936ZM82.9443 13.8027H84.6484L82.2412 18.2949V21H80.7373V18.2949L78.2471 13.8027H80.0195L81.5137 16.9375L82.9443 13.8027ZM45.6006 28.0488C45.4867 27.5573 45.2083 27.2139 44.7656 27.0186C44.5182 26.9111 44.2432 26.8574 43.9404 26.8574C43.361 26.8574 42.8841 27.0771 42.5098 27.5166C42.1387 27.9528 41.9531 28.6104 41.9531 29.4893C41.9531 30.3747 42.1549 31.0013 42.5586 31.3691C42.9622 31.737 43.4212 31.9209 43.9355 31.9209C44.4401 31.9209 44.8535 31.776 45.1758 31.4863C45.498 31.1934 45.6966 30.8109 45.7715 30.3389H44.1064V29.1377H47.1045V33H46.1084L45.957 32.1016C45.6673 32.4434 45.4069 32.6842 45.1758 32.8242C44.7786 33.0684 44.2904 33.1904 43.7109 33.1904C42.7572 33.1904 41.9759 32.86 41.3672 32.1992C40.7324 31.5352 40.415 30.627 40.415 29.4746C40.415 28.3092 40.7357 27.375 41.377 26.6719C42.0182 25.9688 42.8662 25.6172 43.9209 25.6172C44.8356 25.6172 45.5697 25.8499 46.123 26.3154C46.6797 26.7777 46.9987 27.3555 47.0801 28.0488H45.6006ZM50.5488 27.0527V28.9863H52.2529C52.5915 28.9863 52.8454 28.9473 53.0146 28.8691C53.3141 28.7324 53.4639 28.4622 53.4639 28.0586C53.4639 27.6224 53.319 27.3294 53.0293 27.1797C52.8665 27.0951 52.6224 27.0527 52.2969 27.0527H50.5488ZM52.6094 25.8027C53.1139 25.8125 53.5013 25.8743 53.7715 25.9883C54.0449 26.1022 54.276 26.2699 54.4648 26.4912C54.6211 26.6735 54.7448 26.8753 54.8359 27.0967C54.9271 27.318 54.9727 27.5703 54.9727 27.8535C54.9727 28.1953 54.8864 28.5322 54.7139 28.8643C54.5413 29.193 54.2565 29.4258 53.8594 29.5625C54.1914 29.696 54.4258 29.8864 54.5625 30.1338C54.7025 30.3779 54.7725 30.7523 54.7725 31.2568V31.7402C54.7725 32.069 54.7855 32.292 54.8115 32.4092C54.8506 32.5947 54.9417 32.7314 55.085 32.8193V33H53.4297C53.3841 32.8405 53.3516 32.7119 53.332 32.6143C53.293 32.4124 53.2718 32.2057 53.2686 31.9941L53.2588 31.3252C53.2523 30.8662 53.1676 30.5602 53.0049 30.4072C52.8454 30.2542 52.5443 30.1777 52.1016 30.1777H50.5488V33H49.0791V25.8027H52.6094ZM59.9551 31.9258C60.5508 31.9258 61.0228 31.7061 61.3711 31.2666C61.7227 30.8271 61.8984 30.2021 61.8984 29.3916C61.8984 28.5843 61.7227 27.9609 61.3711 27.5215C61.0228 27.0788 60.5508 26.8574 59.9551 26.8574C59.3594 26.8574 58.8841 27.0771 58.5293 27.5166C58.1745 27.9561 57.9971 28.5811 57.9971 29.3916C57.9971 30.2021 58.1745 30.8271 58.5293 31.2666C58.8841 31.7061 59.3594 31.9258 59.9551 31.9258ZM63.4023 29.3916C63.4023 30.6839 63.0394 31.6735 62.3135 32.3604C61.7699 32.9202 60.9837 33.2002 59.9551 33.2002C58.9264 33.2002 58.1403 32.9202 57.5967 32.3604C56.8675 31.6735 56.5029 30.6839 56.5029 29.3916C56.5029 28.0732 56.8675 27.0837 57.5967 26.4229C58.1403 25.863 58.9264 25.583 59.9551 25.583C60.9837 25.583 61.7699 25.863 62.3135 26.4229C63.0394 27.0837 63.4023 28.0732 63.4023 29.3916ZM65.0547 25.8027H66.583V30.2266C66.583 30.7214 66.6416 31.0827 66.7588 31.3105C66.9411 31.7142 67.3382 31.916 67.9502 31.916C68.5589 31.916 68.9544 31.7142 69.1367 31.3105C69.2539 31.0827 69.3125 30.7214 69.3125 30.2266V25.8027H70.8408V30.2266C70.8408 30.9915 70.722 31.5872 70.4844 32.0137C70.0417 32.7949 69.1969 33.1855 67.9502 33.1855C66.7035 33.1855 65.8571 32.7949 65.4111 32.0137C65.1735 31.5872 65.0547 30.9915 65.0547 30.2266V25.8027ZM76.834 28.0928C76.834 27.7184 76.7347 27.4515 76.5361 27.292C76.3408 27.1325 76.0658 27.0527 75.7109 27.0527H74.3096V29.1719H75.7109C76.0658 29.1719 76.3408 29.0856 76.5361 28.9131C76.7347 28.7406 76.834 28.4671 76.834 28.0928ZM78.3232 28.083C78.3232 28.9326 78.1084 29.5332 77.6787 29.8848C77.249 30.2363 76.6354 30.4121 75.8379 30.4121H74.3096V33H72.8154V25.8027H75.9502C76.6729 25.8027 77.249 25.9883 77.6787 26.3594C78.1084 26.7305 78.3232 27.305 78.3232 28.083Z" fill="#F2F2F2"/>
<defs>
<filter id="filter0_d" x="-1" y="1" width="42" height="42" filterUnits="userSpaceOnUse" color-interpolation-filters="sRGB">
<feFlood flood-opacity="0" result="BackgroundImageFix"/>
<feColorMatrix in="SourceAlpha" type="matrix" values="0 0 0 0 0 0 0 0 0 0 0 0 0 0 0 0 0 0 127 0"/>
<feOffset dy="4"/>
<feGaussianBlur stdDeviation="2"/>
<feColorMatrix type="matrix" values="0 0 0 0 0 0 0 0 0 0 0 0 0 0 0 0 0 0 0.15 0"/>
<feBlend mode="normal" in2="BackgroundImageFix" result="effect1_dropShadow"/>
<feBlend mode="normal" in="SourceGraphic" in2="effect1_dropShadow" result="shape"/>
</filter>
</defs>
</svg>
